<svg xmlns:xlink="http://www.w3.org/1999/xlink"
     height="163"
     width="165"
     xmlns="http://www.w3.org/2000/svg">
    <defs>
        <path
            d="m0.011,0.205l28.899,0l0,82.767l-28.9,0l0.001,-82.767z"
            id="a"/>
    </defs>
    <g>
        <title>Layer 1</title>
        <g
            fill="none"
            fill-rule="evenodd"
            id="svg_1">
            <path
                d="m26,69.539l8,-8.539l0,30l-8,0l0,-21.461z"
                fill="#F8F8F8"
                id="svg_2"/>
            <path
                d="m33.898,122.489l-25.137,0c-2.074,0 -3.76,-1.7 -3.76,-3.787l0,-75.196c0,-2.086 1.686,-3.784 3.76,-3.784l25.137,0l0,1.258l-25.137,0a2.522,2.522 0 0 0 -2.511,2.526l0,75.196a2.523,2.523 0 0 0 2.511,2.528l25.137,0l0,1.259z"
                fill="#C8C8C8"
                id="svg_3"/>
            <g id="svg_4">
                <mask
                    fill="#fff"
                    id="b">
                    <use
                        id="svg_5"
                        xlink:href="#a"/>
                </mask>
                <path
                    d="m156.411,122.488l-25.137,0l0,-1.259l25.137,0a2.523,2.523 0 0 0 2.512,-2.528l0,-75.195a2.522,2.522 0 0 0 -2.512,-2.527l-25.137,0l0,-1.258l25.137,0c2.075,0 3.762,1.698 3.762,3.785l0,75.195c0,2.088 -1.687,3.787 -3.762,3.787"
                    fill="#C8C8C8"
                    id="svg_6"/>
            </g>
            <path
                d="m131.274,107.506l12.319,0l0,-1.258l-12.319,0l0,1.258zm-104.602,0l7.227,0l0,-1.258l-7.227,0l0,1.258zm15.907,-85.039c-1.994,0 -3.616,1.634 -3.616,3.642l0,109.991c0,2.01 1.622,3.643 3.616,3.643l80.014,0c1.995,0 3.617,-1.634 3.617,-3.642l0,-109.991c0,-2.009 -1.622,-3.643 -3.617,-3.643l-80.013,0l-0.001,0zm80.014,118.533l-80.013,0c-2.683,0 -4.865,-2.198 -4.865,-4.9l0,-109.99c0,-2.703 2.182,-4.9 4.865,-4.9l80.014,0c2.684,0 4.866,2.197 4.866,4.9l0,109.99c0,2.702 -2.182,4.9 -4.866,4.9l-0.001,0z"
                fill="#C8C8C8"
                id="svg_7"/>
            <path
                d="m60.302,112.534c-2.247,0 -4.075,1.84 -4.075,4.1c0,2.263 1.828,4.103 4.075,4.103s4.075,-1.84 4.075,-4.102c0,-2.261 -1.828,-4.1 -4.075,-4.1m0,9.46c-2.936,0 -5.325,-2.405 -5.325,-5.36c0,-2.955 2.39,-5.36 5.325,-5.36c2.936,0 5.324,2.405 5.324,5.36c0,2.955 -2.388,5.36 -5.324,5.36m-41.466,-17.453a2.33,2.33 0 0 0 -2.32,2.335a2.33,2.33 0 0 0 2.32,2.337a2.33,2.33 0 0 0 2.32,-2.337a2.33,2.33 0 0 0 -2.32,-2.335m0,5.93c-1.968,0 -3.57,-1.612 -3.57,-3.595c0,-1.982 1.602,-3.593 3.57,-3.593c1.968,0 3.57,1.611 3.57,3.593c0,1.983 -1.602,3.594 -3.57,3.594m53.374,6.793l33.518,0l0,-1.258l-33.518,0l0,1.258zm-11.908,-20.73c-2.247,0 -4.075,1.84 -4.075,4.1c0,2.263 1.828,4.103 4.075,4.103s4.075,-1.84 4.075,-4.102c0,-2.261 -1.828,-4.1 -4.075,-4.1m0,9.46c-2.936,0 -5.325,-2.405 -5.325,-5.36c0,-2.955 2.39,-5.36 5.325,-5.36c2.936,0 5.324,2.405 5.324,5.36c0,2.955 -2.388,5.36 -5.324,5.36m11.908,-4.731l33.518,0l0,-1.258l-33.518,0l0,1.258zm-11.908,-20.73c-2.247,0 -4.075,1.84 -4.075,4.1c0,2.263 1.828,4.103 4.075,4.103s4.075,-1.84 4.075,-4.102c0,-2.261 -1.828,-4.1 -4.075,-4.1m0,9.46c-2.936,0 -5.325,-2.405 -5.325,-5.36c0,-2.955 2.39,-5.36 5.325,-5.36c2.936,0 5.324,2.405 5.324,5.36c0,2.955 -2.388,5.36 -5.324,5.36m11.908,-4.731l33.518,0l0,-1.258l-33.518,0l0,1.258zm-52.017,-9.386l-0.884,-0.89l14.266,-14.365l0.884,0.89l-14.266,14.365zm13.688,15.848l-8.977,0l0,-17.996l1.25,0l0,16.738l7.727,0l0,1.258z"
                fill="#C8C8C8"
                id="svg_8"/>
            <path
                d="m131.274,66.19c5.11,0 9.25,4.17 9.25,9.312c0,5.145 -4.14,9.316 -9.25,9.316"
                fill="#F8F8F8"
                id="svg_9"/>
            <path
                d="m131.274,85.446l0,-1.258c4.756,0 8.626,-3.895 8.626,-8.686c0,-4.787 -3.87,-8.683 -8.626,-8.683l0,-1.258c5.445,0 9.876,4.46 9.876,9.941c0,5.484 -4.43,9.944 -9.876,9.944m12.689,-9.314l5.585,0l0,-1.258l-5.585,0l0,1.258zm-3.275,-9.217l-0.883,-0.89l3.95,-3.977l0.884,0.89l-3.951,3.977zm3.067,22.045l-3.95,-3.978l0.883,-0.89l3.95,3.977l-0.883,0.891zm-12.481,4.942l1.25,0l0,-5.625l-1.25,0l0,5.625zm0,-31.174l1.25,0l0,-5.625l-1.25,0l0,5.625z"
                fill="#C8C8C8"
                id="svg_10"/>
            <g
                id="svg_11"
                stroke="#C8C8C8"
                stroke-width="1.5">
                <circle
                    cx="83"
                    cy="48"
                    id="svg_12"
                    r="6"/>
                <path
                    d="m92,66a9,9 0 0 0 -18,0"
                    id="svg_13"/>
            </g>
        </g>
    </g>
</svg>