<svg xmlns:xlink="http://www.w3.org/1999/xlink"
     height="24"
     version="1.1"
     width="24"
     xmlns="http://www.w3.org/2000/svg">
    <title>Public/ic_public_cancel</title>
    <defs>
        <path
            d="m19.77817,4.22183c0.2929,0.29289 0.2929,0.76776 0,1.06066l-14.49568,14.49568c-0.2929,0.2929 -0.76777,0.2929 -1.06066,0c-0.2929,-0.29289 -0.2929,-0.76776 0,-1.06066l6.71769,-6.71804l-6.71769,-6.71698c-0.2929,-0.2929 -0.2929,-0.76777 0,-1.06066c0.29289,-0.2929 0.76776,-0.2929 1.06066,0l6.71751,6.71716l6.71751,-6.71716c0.2929,-0.2929 0.76777,-0.2929 1.06066,0zm0,14.49568c0.2929,0.2929 0.2929,0.76777 0,1.06066c-0.29289,0.2929 -0.76776,0.2929 -1.06066,0l-6.01023,-6.01058l1.06049,-1.06048l6.0104,6.0104z"
            id="_path-1"/>
    </defs>
    <g>
        <title>Layer 1</title>
        <g
            fill="none"
            fill-rule="evenodd"
            id="_Public/ic_public_cancel">
            <mask
                fill="white"
                id="_mask-2">
                <use
                    id="svg_1"
                    xlink:href="#_path-1"/>
            </mask>
            <use
                fill="#000000"
                id="_形状"
                xlink:href="#_path-1"/>
        </g>
    </g>
</svg>