<svg aria-hidden="true"
     class="fluentIcon ___12fm75w f1w7gpdv fez10in fg4l7m0"
     fill="currentColor"
     focusable="false"
     height="16"
     width="16"
     xmlns="http://www.w3.org/2000/svg">

    <g>
        <title>Layer 1</title>
        <path
            d="m2.59,2.72l0.06,-0.07a0.5,0.5 0 0 1 0.63,-0.06l0.07,0.06l4.65,4.64l4.65,-4.64a0.5,0.5 0 0 1 0.7,0.7l-4.64,4.65l4.64,4.65c0.18,0.17 0.2,0.44 0.06,0.63l-0.06,0.07a0.5,0.5 0 0 1 -0.63,0.06l-0.07,-0.06l-4.65,-4.64l-4.65,4.64a0.5,0.5 0 0 1 -0.7,-0.7l4.64,-4.65l-4.64,-4.65a0.5,0.5 0 0 1 -0.06,-0.63l0.06,-0.07l-0.06,0.07z"
            fill="currentColor"
            id="svg_1"/>
    </g>
</svg>