<svg aria-hidden="true"
     fill="currentColor"
     height="20"
     width="20"
     xmlns="http://www.w3.org/2000/svg">

    <g>
        <title>Layer 1</title>
        <path
            d="m3,6.5a1,1 0 1 0 0,-2a1,1 0 0 0 0,2zm3,-1c0,-0.28 0.22,-0.5 0.5,-0.5l11,0a0.5,0.5 0 0 1 0,1l-11,0a0.5,0.5 0 0 1 -0.5,-0.5zm0,5c0,-0.28 0.22,-0.5 0.5,-0.5l11,0a0.5,0.5 0 0 1 0,1l-11,0a0.5,0.5 0 0 1 -0.5,-0.5zm0.5,4.5a0.5,0.5 0 0 0 0,1l11,0a0.5,0.5 0 0 0 0,-1l-11,0zm-2.5,0.5a1,1 0 1 1 -2,0a1,1 0 0 1 2,0zm-1,-4a1,1 0 1 0 0,-2a1,1 0 0 0 0,2z"
            fill="currentColor"
            id="svg_1"/>
    </g>
</svg>