<svg aria-hidden="true"
     class="fluentIcon ___12fm75w f1w7gpdv fez10in fg4l7m0"
     fill="currentColor"
     height="20"
     width="20"
     xmlns="http://www.w3.org/2000/svg">

    <g>
        <title>Layer 1</title>
        <path
            d="m8.5,4l3,0a1.5,1.5 0 0 0 -3,0zm-1,0a2.5,2.5 0 0 1 5,0l5,0a0.5,0.5 0 0 1 0,1l-1.05,0l-1.2,10.34a3,3 0 0 1 -2.98,2.66l-4.54,0a3,3 0 0 1 -2.98,-2.66l-1.2,-10.34l-1.05,0a0.5,0.5 0 0 1 0,-1l5,0zm-1.76,11.23a2,2 0 0 0 1.99,1.77l4.54,0a2,2 0 0 0 1.99,-1.77l1.18,-10.23l-10.88,0l1.18,10.23zm2.76,-7.73c0.28,0 0.5,0.22 0.5,0.5l0,6a0.5,0.5 0 0 1 -1,0l0,-6c0,-0.28 0.22,-0.5 0.5,-0.5zm3.5,0.5a0.5,0.5 0 0 0 -1,0l0,6a0.5,0.5 0 0 0 1,0l0,-6z"
            fill="currentColor"
            id="svg_1"/>
    </g>
</svg>