<svg aria-hidden="true"
     class="fluentIcon ___12fm75w f1w7gpdv fez10in fg4l7m0"
     fill="currentColor"
     height="20"
     width="20"
     xmlns="http://www.w3.org/2000/svg">

    <g>
        <title>Layer 1</title>
        <path
            d="m9.18,10.5l-1,0.87a0.5,0.5 0 1 0 0.66,0.76l2,-1.75a0.5,0.5 0 0 0 0,-0.76l-2,-1.75a0.5,0.5 0 1 0 -0.66,0.76l1,0.87l-3.68,0a0.5,0.5 0 0 0 0,1l3.68,0zm6.82,5.5a2,2 0 0 0 2,-2l0,-8a2,2 0 0 0 -2,-2l-12,0a2,2 0 0 0 -2,2l0,8c0,1.1 0.9,2 2,2l12,0zm1,-2a1,1 0 0 1 -1,1l-3,0l0,-10l3,0a1,1 0 0 1 1,1l0,8zm-5,-9l0,10l-8,0a1,1 0 0 1 -1,-1l0,-8a1,1 0 0 1 1,-1l8,0z"
            fill="currentColor"
            id="svg_1"/>
    </g>
</svg>