<svg aria-hidden="true"
     fill="currentColor"
     focusable="false"
     height="20"
     width="20"
     xmlns="http://www.w3.org/2000/svg">

    <g>
        <title>Layer 1</title>
        <path
            d="m9,2.39a1.5,1.5 0 0 1 2,0l5.5,4.94c0.32,0.28 0.5,0.69 0.5,1.12l0,7.05c0,0.83 -0.67,1.5 -1.5,1.5l-2.5,0a1.5,1.5 0 0 1 -1.5,-1.5l0,-3.5a0.5,0.5 0 0 0 -0.5,-0.5l-2,0a0.5,0.5 0 0 0 -0.5,0.5l0,3.5c0,0.83 -0.67,1.5 -1.5,1.5l-2.5,0a1.5,1.5 0 0 1 -1.5,-1.5l0,-7.05c0,-0.43 0.18,-0.84 0.5,-1.12l5.5,-4.94zm1.33,0.74a0.5,0.5 0 0 0 -0.66,0l-5.5,4.94a0.5,0.5 0 0 0 -0.17,0.38l0,7.05c0,0.28 0.22,0.5 0.5,0.5l2.5,0a0.5,0.5 0 0 0 0.5,-0.5l0,-3.5c0,-0.83 0.67,-1.5 1.5,-1.5l2,0c0.83,0 1.5,0.67 1.5,1.5l0,3.5c0,0.28 0.22,0.5 0.5,0.5l2.5,0a0.5,0.5 0 0 0 0.5,-0.5l0,-7.05a0.5,0.5 0 0 0 -0.17,-0.38l-5.5,-4.94z"
            fill="currentColor"
            id="svg_1"/>
    </g>
</svg>