<svg aria-hidden="true"
     fill="currentColor"
     focusable="false"
     height="20"
     width="20"
     xmlns="http://www.w3.org/2000/svg">

    <g>
        <title>Layer 1</title>
        <path
            d="m7,11a1,1 0 1 0 0,-2a1,1 0 0 0 0,2zm1,2a1,1 0 1 1 -2,0a1,1 0 0 1 2,0zm2,-2a1,1 0 1 0 0,-2a1,1 0 0 0 0,2zm1,2a1,1 0 1 1 -2,0a1,1 0 0 1 2,0zm2,-2a1,1 0 1 0 0,-2a1,1 0 0 0 0,2zm4,-5.5a2.5,2.5 0 0 0 -2.5,-2.5l-9,0a2.5,2.5 0 0 0 -2.5,2.5l0,9a2.5,2.5 0 0 0 2.5,2.5l9,0a2.5,2.5 0 0 0 2.5,-2.5l0,-9zm-13,1.5l12,0l0,7.5c0,0.83 -0.67,1.5 -1.5,1.5l-9,0a1.5,1.5 0 0 1 -1.5,-1.5l0,-7.5zm1.5,-3l9,0c0.83,0 1.5,0.67 1.5,1.5l0,0.5l-12,0l0,-0.5c0,-0.83 0.67,-1.5 1.5,-1.5z"
            fill="currentColor"
            id="svg_1"/>
    </g>
</svg>