<svg xmlns:xlink="http://www.w3.org/1999/xlink"
     height="24"
     version="1.1"
     width="24"
     xmlns="http://www.w3.org/2000/svg">
    <defs>
        <path
            d="m18.4686,2.76982c0.01517,0.09637 0.02468,0.19352 0.02849,0.29095l0.00191,0.0975l0.001,11.09166l-0.00181,0.0142l0.00062,1.08377c0,1.86902 -1.32852,3.4093 -3.03965,3.61863l-0.07804,0.00859c-1.1507,0.14117 -2.26042,-0.31962 -2.80562,-1.26228c-0.76693,-1.32604 -0.13233,-3.12507 1.41742,-4.01826c0.15916,-0.09172 0.34071,-0.17976 0.53227,-0.26823l0.47261,-0.21526c0.43918,-0.20195 0.87876,-0.42193 1.18669,-0.70379l0.09471,-0.08794l0.03266,-0.03128l0.06631,-0.06591c0.28935,-0.29587 0.59696,-0.72966 0.61934,-1.49199l0.0013,-0.08943l0.00038,-0.03462l-0.00019,-7.54772c-0.00001,-0.05204 -0.00407,-0.10399 -0.01216,-0.15539c-0.08326,-0.52903 -0.56711,-0.89548 -1.09382,-0.83891l-0.04949,0.00655l-8.499,1.33762c-0.46951,0.07389 -0.81967,0.46708 -0.84326,0.93719l-0.00127,0.05065l0,2.04801l9.49977,-1.49007l0,1.518l-9.49977,1.49007l0.00003,7.57341l0.00116,0.37458l-0.00125,0.35513l0.00006,1.24189c0,1.86903 -1.32852,3.4093 -3.03965,3.61863l-0.07804,0.0086c-1.15071,0.14117 -2.26043,-0.31963 -2.80563,-1.26229c-0.76692,-1.32603 -0.13232,-3.12507 1.41743,-4.01825c0.15915,-0.09173 0.34071,-0.17977 0.53227,-0.26823l0.4726,-0.21526c0.43919,-0.20195 0.87877,-0.42193 1.1867,-0.70379l0.06253,-0.05768c0.02127,-0.01985 0.04293,-0.04033 0.06483,-0.06154l0.06632,-0.06592c0.28935,-0.29586 0.59695,-0.72966 0.61934,-1.49198l0.0013,-0.08943l0,-8.50388c0,-1.20744 0.86215,-2.23867 2.04285,-2.45786l0.06847,-0.01174l8.499,-1.33762c1.36392,-0.21467 2.64362,0.71699 2.85828,2.08092zm-13.46941,13.27331c-0.33872,0.27177 -0.72167,0.48547 -1.25961,0.73719l-0.63823,0.29211l-0.11077,0.05256l-0.09562,0.04717l-0.08197,0.04255l-0.06986,0.03872c-0.87216,0.50267 -1.19157,1.40816 -0.86798,1.96767c0.21052,0.36399 0.68508,0.58253 1.27673,0.52932l0.12632,-0.01355c0.93798,-0.11474 1.68989,-0.98207 1.72081,-2.06053l0.00099,-0.06912l-0.00081,-1.56409zm12.00081,-2.26038l-0.00177,0.00156c-0.33904,0.27142 -0.7219,0.48505 -1.25983,0.73677l-0.18107,0.08343l-0.45717,0.20867l-0.11077,0.05256l-0.09561,0.04717c-0.01476,0.00745 -0.02895,0.01472 -0.0426,0.02181l-0.07573,0.04054c-0.01163,0.00645 -0.02279,0.01275 -0.03351,0.01893c-0.87216,0.50266 -1.19157,1.40815 -0.86797,1.96766c0.21052,0.364 0.68508,0.58254 1.27673,0.52933l0.12632,-0.01355c0.93798,-0.11475 1.68988,-0.98208 1.7208,-2.06054l0.00099,-0.06912l-0.00005,-1.24725l0.00124,-0.31797z"
            id="_uxs-a"/>
    </defs>
    <g>
        <title>Layer 1</title>
        <g
            fill="none"
            fill-rule="evenodd"
            id="svg_1">
            <mask
                fill="#fff"
                id="_uxs-b">
                <use
                    id="svg_2"
                    xlink:href="#_uxs-a"/>
            </mask>
            <g
                fill="#000"
                fill-opacity="0.9"
                id="svg_3"
                mask="url(#_uxs-b)">
                <rect
                    height="24"
                    id="svg_4"
                    width="24"
                    x="0"
                    y="0"/>
            </g>
        </g>
    </g>
</svg>