<svg aria-hidden="true"
     fill="currentColor"
     focusable="false"
     height="20"
     width="20"
     xmlns="http://www.w3.org/2000/svg">

    <g>
        <title>Layer 1</title>
        <path
            d="m10,2c0.28,0 0.5,0.22 0.5,0.5l0,1a0.5,0.5 0 0 1 -1,0l0,-1c0,-0.28 0.22,-0.5 0.5,-0.5zm0,12a4,4 0 1 0 0,-8a4,4 0 0 0 0,8zm0,-1a3,3 0 1 1 0,-6a3,3 0 0 1 0,6zm7.5,-2.5a0.5,0.5 0 0 0 0,-1l-1,0a0.5,0.5 0 0 0 0,1l1,0zm-7.5,5.5c0.28,0 0.5,0.22 0.5,0.5l0,1a0.5,0.5 0 0 1 -1,0l0,-1c0,-0.28 0.22,-0.5 0.5,-0.5zm-6.5,-5.5a0.5,0.5 0 0 0 0,-1l-1.04,0a0.5,0.5 0 0 0 0,1l1.04,0zm0.65,-6.35c0.2,-0.2 0.5,-0.2 0.7,0l1,1a0.5,0.5 0 1 1 -0.7,0.7l-1,-1a0.5,0.5 0 0 1 0,-0.7zm0.7,11.7a0.5,0.5 0 0 1 -0.7,-0.7l1,-1a0.5,0.5 0 0 1 0.7,0.7l-1,1zm11,-11.7a0.5,0.5 0 0 0 -0.7,0l-1,1a0.5,0.5 0 0 0 0.7,0.7l1,-1a0.5,0.5 0 0 0 0,-0.7zm-0.7,11.7a0.5,0.5 0 0 0 0.7,-0.7l-1,-1a0.5,0.5 0 0 0 -0.7,0.7l1,1z"
            fill="currentColor"
            id="svg_1"/>
    </g>
</svg>