<svg fill="none"
     height="20"
     width="20"
     xmlns="http://www.w3.org/2000/svg">

    <g>
        <title>Layer 1</title>
        <path
            d="m14.5,3c1.3807,0 2.5,1.11929 2.5,2.5l0,4.09971c-0.3168,-0.16194 -0.6514,-0.29407 -1,-0.39268l0,-3.70703c0,-0.82843 -0.6716,-1.5 -1.5,-1.5l-9,0c-0.82843,0 -1.5,0.67157 -1.5,1.5l0,9c0,0.8284 0.67157,1.5 1.5,1.5l3.70703,0c0.09861,0.3486 0.23074,0.6832 0.39268,1l-4.09971,0c-1.38071,0 -2.5,-1.1193 -2.5,-2.5l0,-9c0,-1.38071 1.11929,-2.5 2.5,-2.5l9,0z"
            fill="#212121"
            id="svg_1"/>
        <path
            d="m6.5,6c0.24546,0 0.44961,0.17688 0.49194,0.41012l0.00806,0.08988l0,7c0,0.2761 -0.22386,0.5 -0.5,0.5c-0.24546,0 -0.44961,-0.1769 -0.49194,-0.4101l-0.00806,-0.0899l0,-7c0,-0.27614 0.22386,-0.5 0.5,-0.5z"
            fill="#212121"
            id="svg_2"/>
        <path
            clip-rule="evenodd"
            d="m19,14.5c0,2.4853 -2.0147,4.5 -4.5,4.5c-2.4853,0 -4.5,-2.0147 -4.5,-4.5c0,-2.4853 2.0147,-4.5 4.5,-4.5c2.4853,0 4.5,2.0147 4.5,4.5zm-4,-2c0,-0.2761 -0.2239,-0.5 -0.5,-0.5c-0.2761,0 -0.5,0.2239 -0.5,0.5l0,1.5l-1.5,0c-0.2761,0 -0.5,0.2239 -0.5,0.5c0,0.2761 0.2239,0.5 0.5,0.5l1.5,0l0,1.5c0,0.2761 0.2239,0.5 0.5,0.5c0.2761,0 0.5,-0.2239 0.5,-0.5l0,-1.5l1.5,0c0.2761,0 0.5,-0.2239 0.5,-0.5c0,-0.2761 -0.2239,-0.5 -0.5,-0.5l-1.5,0l0,-1.5z"
            fill="#212121"
            fill-rule="evenodd"
            id="svg_3"/>
    </g>
</svg>