<svg fill="none"
     focusable="false"
     height="20"
     width="20"
     xmlns="http://www.w3.org/2000/svg">

    <g>
        <title>Layer 1</title>
        <path
            clip-rule="evenodd"
            d="m14.5,3c1.3807,0 2.5,1.11929 2.5,2.5l0,4.09971c-0.3168,-0.16194 -0.6514,-0.29407 -1,-0.39268l0,-2.20703l-12,0l0,7.5c0,0.8284 0.67157,1.5 1.5,1.5l3.70703,0c0.09861,0.3486 0.23074,0.6832 0.39268,1l-4.09971,0c-1.38071,0 -2.5,-1.1193 -2.5,-2.5l0,-9c0,-1.38071 1.11929,-2.5 2.5,-2.5l9,0zm0,1l-9,0c-0.82843,0 -1.5,0.67157 -1.5,1.5l0,0.5l12,0l0,-0.5c0,-0.82843 -0.6716,-1.5 -1.5,-1.5z"
            fill="#212121"
            fill-rule="evenodd"
            id="svg_1"/>
        <path
            clip-rule="evenodd"
            d="m19,14.5c0,2.4853 -2.0147,4.5 -4.5,4.5c-2.4853,0 -4.5,-2.0147 -4.5,-4.5c0,-2.4853 2.0147,-4.5 4.5,-4.5c2.4853,0 4.5,2.0147 4.5,4.5zm-1.5503,0.3713l-1.7677,1.7678c-0.1953,0.1952 -0.5119,0.1952 -0.7071,0c-0.1953,-0.1953 -0.1953,-0.5119 0,-0.7071l1.4142,-1.4142l-1.4142,-1.4142c-0.1953,-0.1953 -0.1953,-0.5119 0,-0.7072c0.1952,-0.1952 0.5118,-0.1952 0.7071,0l1.7677,1.7678c0.1953,0.1953 0.1953,0.5119 0,0.7071zm-5.3033,-2.4749c-0.1952,0.1953 -0.1952,0.5119 0,0.7072l1.4143,1.4142l-1.4143,1.4142c-0.1952,0.1952 -0.1952,0.5118 0,0.7071c0.1953,0.1952 0.5119,0.1952 0.7072,0l1.7677,-1.7678c0.1953,-0.1952 0.1953,-0.5118 0,-0.7071l-1.7677,-1.7678c-0.1953,-0.1952 -0.5119,-0.1952 -0.7072,0z"
            fill="#212121"
            fill-rule="evenodd"
            id="svg_2"/>
    </g>
</svg>