<svg aria-hidden="true"
     fill="currentColor"
     focusable="false"
     height="20"
     width="20"
     xmlns="http://www.w3.org/2000/svg">

    <g>
        <title>Layer 1</title>
        <path
            d="m9.75,6.5a0.75,0.75 0 1 0 0,-1.5a0.75,0.75 0 0 0 0,1.5zm3,1a0.75,0.75 0 1 0 0,-1.5a0.75,0.75 0 0 0 0,1.5zm2.5,1.5a0.75,0.75 0 1 1 -1.5,0a0.75,0.75 0 0 1 1.5,0zm-0.75,3.75a0.75,0.75 0 1 0 0,-1.5a0.75,0.75 0 0 0 0,1.5zm-1.25,1.25a0.75,0.75 0 1 1 -1.5,0a0.75,0.75 0 0 1 1.5,0zm0.45,-11a7.82,7.82 0 0 0 -7.93,0.17a9.6,9.6 0 0 0 -3.25,3.89a5.9,5.9 0 0 0 -0.62,2.43c0,0.8 0.27,1.57 0.94,2.12c0.61,0.5 1.14,0.74 1.66,0.77c0.51,0.02 0.92,-0.19 1.23,-0.37l0.2,-0.12c0.24,-0.15 0.44,-0.27 0.69,-0.35c0.28,-0.09 0.64,-0.12 1.16,0.04c0.19,0.06 0.3,0.14 0.38,0.24c0.09,0.1 0.16,0.26 0.2,0.47c0.06,0.21 0.09,0.46 0.1,0.76c0.02,0.1 0.02,0.24 0.03,0.37l0.04,0.58c0.05,0.67 0.17,1.44 0.57,2.14c0.42,0.7 1.1,1.3 2.2,1.68c1.6,0.54 3.07,0.1 4.21,-0.8a7.46,7.46 0 0 0 2.37,-3.6c1.32,-4.26 -0.2,-8.38 -4.18,-10.42zm-7.4,1.01a6.82,6.82 0 0 1 6.94,-0.14c3.5,1.8 4.87,5.4 3.69,9.25a6.46,6.46 0 0 1 -2.04,3.1a3.33,3.33 0 0 1 -3.26,0.64c-0.9,-0.3 -1.38,-0.76 -1.66,-1.24a4,4 0 0 1 -0.44,-1.7l-0.04,-0.54l-0.02,-0.41c-0.03,-0.31 -0.06,-0.63 -0.13,-0.93c-0.07,-0.3 -0.2,-0.6 -0.4,-0.86c-0.22,-0.26 -0.5,-0.46 -0.87,-0.57a2.85,2.85 0 0 0 -1.75,-0.03c-0.38,0.12 -0.7,0.32 -0.95,0.47l-0.14,0.09c-0.29,0.16 -0.48,0.24 -0.68,0.23c-0.22,-0.01 -0.55,-0.12 -1.08,-0.55c-0.38,-0.31 -0.57,-0.76 -0.57,-1.34c0,-0.6 0.19,-1.29 0.52,-2.01a8.63,8.63 0 0 1 2.88,-3.45l0,-0.01z"
            fill="currentColor"
            id="svg_1"/>
    </g>
</svg>