<svg fill="none"
     focusable="false"
     height="20"
     width="20"
     xmlns="http://www.w3.org/2000/svg">

    <g>
        <title>Layer 1</title>
        <path
            d="m17,10c0,3.7296 -2.9168,6.778 -6.5938,6.9884c-0.1833,0.3606 -0.4051,0.6983 -0.6601,1.0076c0.08431,0.0027 0.16895,0.004 0.2539,0.004c4.4183,0 8,-3.5817 8,-8c0,-4.41828 -3.5817,-8 -8,-8c-4.41828,0 -8,3.58172 -8,8c0,0.0849 0.00132,0.1696 0.00395,0.2539c0.30935,-0.25499 0.64704,-0.47684 1.00764,-0.6601c0.21038,-3.67695 3.25876,-6.5938 6.98841,-6.5938c3.866,0 7,3.13401 7,7z"
            fill="black"
            id="svg_1"/>
        <path
            d="m9.5,5c-0.27614,0 -0.5,0.22386 -0.5,0.5l0,5c0,0.2761 0.22386,0.5 0.5,0.5l3,0c0.2761,0 0.5,-0.2239 0.5,-0.5c0,-0.2761 -0.2239,-0.5 -0.5,-0.5l-2.5,0l0,-4.5c0,-0.27614 -0.22386,-0.5 -0.5,-0.5z"
            fill="black"
            id="svg_2"/>
        <path
            clip-rule="evenodd"
            d="m10,14.5c0,-2.4853 -2.01472,-4.5 -4.5,-4.5c-2.48528,0 -4.5,2.0147 -4.5,4.5c0,2.4853 2.01472,4.5 4.5,4.5c2.48528,0 4.5,-2.0147 4.5,-4.5zm-4.14645,2.3536l1.99961,-1.9996l0.00251,-0.0026c0.04689,-0.0474 0.08235,-0.1019 0.10639,-0.16c0.02409,-0.0581 0.03754,-0.1217 0.03793,-0.1884l0.00001,-0.003l-0.00001,-0.003c-0.00039,-0.0667 -0.01384,-0.1303 -0.03793,-0.1884c-0.0244,-0.059 -0.06057,-0.1142 -0.10851,-0.1622l-2,-2c-0.19526,-0.1952 -0.51184,-0.1952 -0.7071,0c-0.19527,0.1953 -0.19527,0.5119 0,0.7072l1.14644,1.1464l-2.79289,0c-0.27614,0 -0.5,0.2239 -0.5,0.5c0,0.2761 0.22386,0.5 0.5,0.5l2.79289,0l-1.14644,1.1464c-0.19527,0.1953 -0.19527,0.5119 0,0.7072c0.19526,0.1952 0.51184,0.1952 0.7071,0z"
            fill="black"
            fill-rule="evenodd"
            id="svg_3"/>
    </g>
</svg>