<svg fill="none"
     focusable="false"
     height="20"
     width="20"
     xmlns="http://www.w3.org/2000/svg">

    <g>
        <title>Layer 1</title>
        <path
            d="m17,10c0,3.7296 -2.9168,6.778 -6.5938,6.9884c-0.1833,0.3606 -0.4051,0.6983 -0.6601,1.0076c0.08431,0.0027 0.16895,0.004 0.2539,0.004c4.4183,0 8,-3.5817 8,-8c0,-4.41828 -3.5817,-8 -8,-8c-4.41828,0 -8,3.58172 -8,8c0,0.0849 0.00132,0.1696 0.00395,0.2539c0.30935,-0.25499 0.64704,-0.47684 1.00764,-0.6601c0.21038,-3.67695 3.25876,-6.5938 6.98841,-6.5938c3.866,0 7,3.13401 7,7z"
            fill="black"
            id="svg_1"/>
        <path
            d="m9.5,5c-0.27614,0 -0.5,0.22386 -0.5,0.5l0,5c0,0.2761 0.22386,0.5 0.5,0.5l3,0c0.2761,0 0.5,-0.2239 0.5,-0.5c0,-0.2761 -0.2239,-0.5 -0.5,-0.5l-2.5,0l0,-4.5c0,-0.27614 -0.22386,-0.5 -0.5,-0.5z"
            fill="black"
            id="svg_2"/>
        <path
            clip-rule="evenodd"
            d="m5.5,19c2.48528,0 4.5,-2.0147 4.5,-4.5c0,-2.4853 -2.01472,-4.5 -4.5,-4.5c-2.48528,0 -4.5,2.0147 -4.5,4.5c0,2.4853 2.01472,4.5 4.5,4.5zm-2.35355,-4.1464l1.9996,1.9996l0.00252,0.0025c0.04745,0.0469 0.10194,0.0823 0.16004,0.1064c0.05808,0.024 0.12169,0.0375 0.18839,0.0379l0.003,0l0.003,0c0.0667,-0.0004 0.13031,-0.0139 0.18839,-0.0379c0.05897,-0.0244 0.11422,-0.0606 0.16216,-0.1085l2,-2c0.19527,-0.1953 0.19527,-0.5119 0,-0.7072c-0.19526,-0.1952 -0.51184,-0.1952 -0.7071,0l-1.14645,1.1465l0,-2.7929c0,-0.2761 -0.22386,-0.5 -0.5,-0.5c-0.27614,0 -0.5,0.2239 -0.5,0.5l0,2.7929l-1.14645,-1.1465c-0.19526,-0.1952 -0.51184,-0.1952 -0.7071,0c-0.19527,0.1953 -0.19527,0.5119 0,0.7072z"
            fill="black"
            fill-rule="evenodd"
            id="svg_3"/>
    </g>
</svg>