<svg aria-hidden="true"
     fill="currentColor"
     focusable="false"
     height="16"
     width="16"
     xmlns="http://www.w3.org/2000/svg">

    <g>
        <title>Layer 1</title>
        <path
            d="m12.9,5.24a3.99,3.99 0 0 1 -2.7,6.75l-0.2,0.01l-3.3,0l1.16,1.15c0.17,0.17 0.19,0.44 0.05,0.64l-0.05,0.07a0.5,0.5 0 0 1 -0.64,0.05l-0.07,-0.05l-2,-2a0.5,0.5 0 0 1 -0.06,-0.64l0.06,-0.07l2,-2a0.5,0.5 0 0 1 0.76,0.63l-0.05,0.07l-1.16,1.15l3.3,0a3,3 0 0 0 3,-2.82l0,-0.18a3,3 0 0 0 -0.87,-2.1a0.5,0.5 0 0 1 0.69,-0.72l0.07,0.06l0.01,0zm-4.13,-3.15l0.07,0.05l2,2l0.06,0.08a0.5,0.5 0 0 1 0,0.56l-0.05,0.07l-2,2l-0.08,0.06a0.5,0.5 0 0 1 -0.56,0l-0.07,-0.05l-0.06,-0.07a0.5,0.5 0 0 1 0,-0.57l0.06,-0.07l1.15,-1.15l-3.29,0a3,3 0 0 0 -3,2.82l0,0.18c0,0.82 0.33,1.56 0.86,2.1a0.5,0.5 0 0 1 -0.71,0.7a4,4 0 0 1 2.65,-6.8l3.5,0l-1.16,-1.15l-0.06,-0.07a0.5,0.5 0 0 1 0.7,-0.7l-0.01,0.01z"
            fill="currentColor"
            id="svg_1"/>
    </g>
</svg>