<svg aria-hidden="true"
     fill="currentColor"
     focusable="false"
     height="20"
     width="20"
     xmlns="http://www.w3.org/2000/svg">

    <g>
        <title>Layer 1</title>
        <path
            d="m6.5,6a0.5,0.5 0 0 0 -0.5,0.5l0,3c0,0.28 0.22,0.5 0.5,0.5l7,0a0.5,0.5 0 0 0 0.5,-0.5l0,-3a0.5,0.5 0 0 0 -0.5,-0.5l-7,0zm0.5,3l0,-2l6,0l0,2l-6,0zm10,-3.5a2.5,2.5 0 0 0 -2.5,-2.5l-9,0a2.5,2.5 0 0 0 -2.5,2.5l0,9a2.5,2.5 0 0 0 2.5,2.5l9,0a2.5,2.5 0 0 0 2.5,-2.5l0,-9zm-11.5,-1.5l9,0c0.83,0 1.5,0.67 1.5,1.5l0,9c0,0.83 -0.67,1.5 -1.5,1.5l-9,0a1.5,1.5 0 0 1 -1.5,-1.5l0,-9c0,-0.83 0.67,-1.5 1.5,-1.5z"
            fill="currentColor"
            id="svg_1"/>
    </g>
</svg>