<svg aria-hidden="true"
     fill="currentColor"
     focusable="false"
     height="20"
     width="20"
     xmlns="http://www.w3.org/2000/svg">

    <g>
        <title>Layer 1</title>
        <path
            d="m14.5,3a2.5,2.5 0 0 1 2.5,2.5l0,9a2.5,2.5 0 0 1 -2.5,2.5l-9,0a2.5,2.5 0 0 1 -2.5,-2.5l0,-9a2.5,2.5 0 0 1 2.5,-2.5l9,0zm0,1l-9,0c-0.83,0 -1.5,0.67 -1.5,1.5l0,9c0,0.83 0.67,1.5 1.5,1.5l9,0c0.83,0 1.5,-0.67 1.5,-1.5l0,-9c0,-0.83 -0.67,-1.5 -1.5,-1.5zm-8,2a0.5,0.5 0 0 1 0.5,0.41l0,7.09a0.5,0.5 0 0 1 -1,0.09l0,-7.09c0,-0.28 0.22,-0.5 0.5,-0.5zm3.5,0a0.5,0.5 0 0 1 0.5,0.41l0,7.09a0.5,0.5 0 0 1 -1,0.09l0,-7.09c0,-0.28 0.22,-0.5 0.5,-0.5zm3.5,0a0.5,0.5 0 0 1 0.5,0.41l0,7.09a0.5,0.5 0 0 1 -1,0.09l0,-7.09c0,-0.28 0.22,-0.5 0.5,-0.5z"
            fill="currentColor"
            id="svg_1"/>
    </g>
</svg>