<svg aria-hidden="true"
     fill="currentColor"
     focusable="false"
     height="20"
     width="20"
     xmlns="http://www.w3.org/2000/svg">

    <g>
        <title>Layer 1</title>
        <path
            d="m14.5,3a2.5,2.5 0 0 1 2.5,2.5l0,9a2.5,2.5 0 0 1 -2.5,2.5l-9,0a2.5,2.5 0 0 1 -2.5,-2.5l0,-9a2.5,2.5 0 0 1 2.5,-2.5l9,0zm0,1l-9,0c-0.83,0 -1.5,0.67 -1.5,1.5l0,9c0,0.83 0.67,1.5 1.5,1.5l9,0c0.83,0 1.5,-0.67 1.5,-1.5l0,-9c0,-0.83 -0.67,-1.5 -1.5,-1.5zm-1.78,5c0.44,0 0.6,0.05 0.77,0.13c0.16,0.1 0.29,0.22 0.38,0.38c0.08,0.16 0.13,0.33 0.13,0.77l0,2.44c0,0.44 -0.05,0.6 -0.13,0.77a0.9,0.9 0 0 1 -0.38,0.38c-0.16,0.08 -0.33,0.13 -0.77,0.13l-5.44,0c-0.44,0 -0.6,-0.05 -0.77,-0.13a0.9,0.9 0 0 1 -0.38,-0.38c-0.08,-0.16 -0.13,-0.33 -0.13,-0.77l0,-2.44c0,-0.44 0.05,-0.6 0.13,-0.77a0.9,0.9 0 0 1 0.38,-0.38c0.16,-0.08 0.33,-0.13 0.77,-0.13l5.44,0zm0.2,1l-5.92,0l0,3l5.98,0l0,-2.98l-0.08,0l0.02,-0.02zm0.58,-4a0.5,0.5 0 0 1 0.09,1l-7.09,0a0.5,0.5 0 0 1 -0.09,-1l7.09,0z"
            fill="currentColor"
            id="svg_1"/>
    </g>
</svg>