<svg aria-hidden="true"
     fill="currentColor"
     height="20"
     width="20"
     xmlns="http://www.w3.org/2000/svg">

    <g>
        <title>Layer 1</title>
        <path
            d="m10,2a5.92,5.92 0 0 1 5.98,5.36l0.02,0.22l0,3.82l0.92,2.22a1,1 0 0 1 0.06,0.17l0.01,0.08l0.01,0.13a1,1 0 0 1 -0.75,0.97l-0.11,0.02l-0.14,0.01l-3.5,0l0,0.17a2.5,2.5 0 0 1 -5,0l0,-0.17l-3.5,0a1,1 0 0 1 -0.26,-0.03l-0.13,-0.04a1,1 0 0 1 -0.6,-1.05l0.02,-0.13l0.05,-0.13l0.92,-2.22l0,-3.83a5.9,5.9 0 0 1 6,-5.57zm1.5,13l-3,0l0,0.15a1.5,1.5 0 0 0 1.36,1.34l0.14,0.01c0.78,0 1.42,-0.6 1.5,-1.36l0,-0.14zm-1.5,-12a4.9,4.9 0 0 0 -4.98,4.38l-0.02,0.22l0,3.9l-0.04,0.2l-0.96,2.3l12,0l-0.96,-2.3l-0.04,-0.2l0,-3.89a4.9,4.9 0 0 0 -5,-4.61z"
            fill="currentColor"
            id="svg_1"/>
    </g>
</svg>