<svg aria-hidden="true"
     fill="currentColor"
     height="20"
     width="20"
     xmlns="http://www.w3.org/2000/svg">

    <g>
        <title>Layer 1</title>
        <path
            d="m2.35,7.35l2.65,-2.64l0,11.79a0.5,0.5 0 0 0 1,0l0,-11.8l2.65,2.65a0.5,0.5 0 0 0 0.7,-0.7l-3.49,-3.5a0.5,0.5 0 0 0 -0.36,-0.15a0.5,0.5 0 0 0 -0.39,0.18l-3.46,3.47a0.5,0.5 0 1 0 0.7,0.7zm15.3,5.3l-2.65,2.64l0,-11.79a0.5,0.5 0 0 0 -1,0l0,11.8l-2.65,-2.65a0.5,0.5 0 0 0 -0.7,0.7l3.49,3.5a0.5,0.5 0 0 0 0.36,0.15a0.5,0.5 0 0 0 0.39,-0.18l3.46,-3.47a0.5,0.5 0 1 0 -0.7,-0.7z"
            fill="currentColor"
            id="svg_1"/>
    </g>
</svg>