<svg aria-hidden="true"
     class="fluentIcon ___12fm75w f1w7gpdv fez10in fg4l7m0"
     fill="currentColor"
     focusable="false"
     height="20"
     width="20"
     xmlns="http://www.w3.org/2000/svg">

    <g>
        <title>Layer 1</title>
        <path
            d="m9.1,2.9a1,1 0 0 1 1.8,0l1.93,3.91l4.31,0.63a1,1 0 0 1 0.56,1.7l-3.12,3.05l0.73,4.3a1,1 0 0 1 -1.45,1.05l-3.86,-2.03l-3.86,2.03a1,1 0 0 1 -1.45,-1.05l0.74,-4.3l-3.13,-3.05a1,1 0 0 1 0.56,-1.7l4.31,-0.63l1.93,-3.91zm0.9,0.44l-1.93,3.91a1,1 0 0 1 -0.75,0.55l-4.32,0.63l3.12,3.04a1,1 0 0 1 0.3,0.89l-0.75,4.3l3.87,-2.03a1,1 0 0 1 0.93,0l3.86,2.03l-0.74,-4.3a1,1 0 0 1 0.29,-0.89l3.12,-3.04l-4.32,-0.63a1,1 0 0 1 -0.75,-0.55l-1.93,-3.9l0,-0.01z"
            fill="currentColor"
            id="svg_1"/>
    </g>
</svg>