<svg aria-hidden="true"
     fill="currentColor"
     focusable="false"
     height="20"
     width="20"
     xmlns="http://www.w3.org/2000/svg">

    <g>
        <title>Layer 1</title>
        <path
            d="m14.5,3a2.5,2.5 0 0 1 2.5,2.5l0,9a2.5,2.5 0 0 1 -2.5,2.5l-3,0l0,-1l3,0c0.83,0 1.5,-0.67 1.5,-1.5l0,-7.5l-12,0l0,7.5c0,0.83 0.67,1.5 1.5,1.5l3,0l0,1l-3,0a2.5,2.5 0 0 1 -2.5,-2.5l0,-9a2.5,2.5 0 0 1 2.5,-2.5l9,0zm0,1l-9,0c-0.83,0 -1.5,0.67 -1.5,1.5l0,0.5l12,0l0,-0.5c0,-0.83 -0.67,-1.5 -1.5,-1.5zm-3.5,5a1,1 0 1 1 -2,0a1,1 0 0 1 2,0zm0.88,5.07a0.5,0.5 0 0 1 -0.7,0.06l-0.68,-0.56l0,3.93a0.5,0.5 0 1 1 -1,0l0,-3.93l-0.68,0.56a0.5,0.5 0 0 1 -0.64,-0.76l1.5,-1.25a0.5,0.5 0 0 1 0.64,0l1.5,1.25c0.21,0.17 0.24,0.49 0.06,0.7z"
            fill="currentColor"
            id="svg_1"/>
    </g>
</svg>