<svg aria-hidden="true"
     fill="currentColor"
     focusable="false"
     height="20"
     width="20"
     xmlns="http://www.w3.org/2000/svg">

    <g>
        <title>Layer 1</title>
        <path
            d="m17,5.5a2.5,2.5 0 0 0 -2.5,-2.5l-9,0a2.5,2.5 0 0 0 -2.5,2.5l0,9a2.5,2.5 0 0 0 2.5,2.5l4.1,0c-0.16,-0.32 -0.3,-0.65 -0.4,-1l-3.7,0a1.5,1.5 0 0 1 -1.5,-1.5l0,-7.5l12,0l0,2.2c0.35,0.1 0.68,0.24 1,0.4l0,-4.1zm-11.5,-1.5l9,0c0.83,0 1.5,0.67 1.5,1.5l0,0.5l-12,0l0,-0.5c0,-0.83 0.67,-1.5 1.5,-1.5zm13.5,10.5a4.5,4.5 0 1 1 -9,0a4.5,4.5 0 0 1 9,0zm-2.15,0.35a0.5,0.5 0 0 0 0.15,-0.35a0.5,0.5 0 0 0 -0.15,-0.35l-2,-2a0.5,0.5 0 0 0 -0.7,0.7l1.14,1.15l-2.79,0a0.5,0.5 0 0 0 0,1l2.8,0l-1.15,1.15a0.5,0.5 0 0 0 0.7,0.7l2,-2z"
            fill="currentColor"
            id="svg_1"/>
    </g>
</svg>