<svg aria-hidden="true"
     fill="currentColor"
     focusable="false"
     height="20"
     width="20"
     xmlns="http://www.w3.org/2000/svg">

    <g>
        <title>Layer 1</title>
        <path
            d="m10,2a4,4 0 1 0 0,8a4,4 0 0 0 0,-8zm-3,4a3,3 0 1 1 6,0a3,3 0 0 1 -6,0zm-2,5a2,2 0 0 0 -2,2c0,1.7 0.83,2.97 2.13,3.8a9.14,9.14 0 0 0 4.87,1.2c1.85,0 3.58,-0.39 4.87,-1.2a4.35,4.35 0 0 0 2.13,-3.8a2,2 0 0 0 -2,-2l-10,0zm-1,2a1,1 0 0 1 1,-1l10,0a1,1 0 0 1 1,1c0,1.3 -0.62,2.28 -1.67,2.95a8.16,8.16 0 0 1 -4.33,1.05a8.16,8.16 0 0 1 -4.33,-1.05a3.36,3.36 0 0 1 -1.67,-2.95z"
            fill="currentColor"
            id="svg_1"/>
    </g>
</svg>